<svg xmlns="http://www.w3.org/2000/svg" viewBox="0 0 1200 800">
<defs>
<linearGradient id="muur" x1="0" y1="0" x2="0" y2="1"><stop offset="0" stop-color="#f5f2ec"/><stop offset="1" stop-color="#e9e2d4"/></linearGradient>
<linearGradient id="licht" x1="0" y1="0" x2="1" y2="1"><stop offset="0" stop-color="#fff" stop-opacity=".85"/><stop offset="1" stop-color="#fff" stop-opacity="0"/></linearGradient>
<linearGradient id="lucht" x1="0" y1="0" x2="0" y2="1"><stop offset="0" stop-color="#cfe0ee"/><stop offset="1" stop-color="#f3ece0"/></linearGradient>
</defs>
<rect width="1200" height="800" fill="url(#muur)"/>
<rect y="620" width="1200" height="180" fill="#e9e2d4"/>
<line x1="0" y1="620" x2="1200" y2="620" stroke="#0b1e30" stroke-opacity=".12" stroke-width="2"/>

<rect x="100" y="180" width="1000" height="400" fill="#14304b" opacity=".08"/>
<rect x="150" y="430" width="430" height="150" rx="75" fill="#ffffff" stroke="#0b1e30" stroke-width="8"/>
<rect x="130" y="410" width="470" height="30" rx="12" fill="#b49030"/>
<rect x="700" y="200" width="360" height="380" rx="8" fill="#dcebf5" stroke="#0b1e30" stroke-width="8" opacity=".9"/>
<line x1="880" y1="200" x2="880" y2="580" stroke="#0b1e30" stroke-width="6"/>
<circle cx="760" cy="240" r="14" fill="#cca94a"/><line x1="760" y1="254" x2="760" y2="300" stroke="#cca94a" stroke-width="5"/>
<rect x="330" y="240" width="240" height="120" rx="6" fill="#e8f1f8" stroke="#0b1e30" stroke-width="6"/>
<circle cx="450" cy="300" r="26" fill="none" stroke="#b49030" stroke-width="5"/>

<rect x="40" y="700" width="330" height="58" rx="4" fill="#0b1e30" opacity=".92"/>
<text x="62" y="730" font-family="Georgia,serif" font-size="24" fill="#cca94a">Badkamer</text>
<text x="62" y="750" font-family="sans-serif" font-size="13" fill="#ffffff" opacity=".6">HomeINN impressie — foto volgt</text>
</svg>